<svg xmlns="http://www.w3.org/2000/svg" width="215.919mm" height="78mm" viewBox="0 0 612.053 221.102">
  <title>paintify_logo</title>
  <g>
    <path d="M379.435,45.672c-4.237-4.468-11.474-4.6-15.5-.278-3.147,3.378-3.287,4.72-5.888,56.359-1.126,22.357.956,34.347,6.756,38.909,5.138,4.041,11.456,4.03,15.813-.03,4.064-3.786,4.345-8.561.907-15.449-2.039-4.088-2.342-8.205-1.607-21.748C383.038,45.978,383.067,49.5,379.435,45.672Z" fill="#5dbba2"/>
    <path d="M297.779,22.972l18.079-.89-.985,10.02c-.542,5.511-1.459,51.963-2.039,70.975-1.036,33.982-1,34.626,2.309,37.931,4.15,4.151,11.724,4.386,15.626.483,2.577-2.576,2.993-6.964,3.972-41.84.6-21.429,1.508-67.989,2.014-71.215l.92-5.865h11.182a58.592,58.592,0,0,0,9.187-.565,12.972,12.972,0,0,0,7.234,2.94c7.235,0,22.557-3.293,26.192-5.63C398.838,14.58,394.049-.2,385.213,0A89.7,89.7,0,0,0,364.4,3.6C360.168.784,349.04.673,319.834.673H279.628l-3.242,4.121c-4.164,5.294-4.149,12.117.036,16.016C279.409,23.592,281.3,23.784,297.779,22.972Z" fill="#5dbba2"/>
    <path d="M44.021,81.716c6.213-1.346,19.427-11.134,25.736-19.063,4.414-5.548,4.741-6.741,3.8-13.872a52.671,52.671,0,0,0-3.409-12.813c-4.208-8.868-8.391-10.38-32.478-11.739-11.971-.676-22.529-.632-23.462.1A20.043,20.043,0,0,1,8.23,26.673C.274,28.573-1.085,33.01.688,51.3,1.554,60.228,2.985,69.99,3.868,73S5.5,83.04,5.528,88.637a117.327,117.327,0,0,0,2.291,20.345,111.76,111.76,0,0,1,2.291,19.231c.046,7.5.72,9.73,3.894,12.9,4.872,4.872,9.348,4.872,14.22,0,3.337-3.337,3.832-5.228,3.784-14.467a119.765,119.765,0,0,0-2.291-20.8,107.657,107.657,0,0,1-2.279-13.295C27.39,89.065,35.955,83.466,44.021,81.716ZM23.685,60.181a46.553,46.553,0,0,1-.985-9.464c-.025-6.658-.428-6.546,17.575-4.846,6.952.657,10.558,1.674,10.558,2.978,0,2.326-8.572,9.853-13.207,11.6a71.708,71.708,0,0,1-8.1,2.272C25.317,63.635,24.517,63.288,23.685,60.181Z" fill="#5dbba2"/>
    <path d="M148.055,92.921c-1.412-6.883-3.89-18.849-5.506-26.591a265.9,265.9,0,0,1-3.984-26.93c-1.373-16.884-3.912-20-15.217-18.657s-13.392,4.106-15.042,19.89c-1.42,13.576-6.4,38.212-9.177,45.411-1.505,3.9-1.9,4.015-9.127,2.731-19.379-3.443-18.642-3.454-22.191.354-4.286,4.6-4.3,11.394-.021,15.375,3.151,2.938,15,6.4,21.877,6.4,3.55,0,3.3,1.837-1.914,13.885-3.834,8.864-3.738,10.506.879,15.123,8.381,8.382,16.853,2.917,22.538-14.54l3.693-11.34h6.808c8.043,0,8.944,1.2,11.72,15.679,1.333,6.954,3.119,11.233,5.7,13.649,4.665,4.374,8.234,4.448,13.535.278,5.044-3.968,5.21-7.942,1.061-25.361C152,111.215,149.467,99.8,148.055,92.921Zm-25.108-.783c-1.65,0-2.187-.85-1.564-2.474a15.5,15.5,0,0,0,.973-4.3c.032-2.438,3.049,2.284,3.08,4.82A2.26,2.26,0,0,1,122.947,92.138Z" fill="#5dbba2"/>
    <path d="M571.372,36.425c1.165-5.822-3.913-10.9-10.9-10.9-6.126,0-9.774,3.535-20.167,19.551-6.93,10.678-24.744,30.5-27.411,30.5-.734,0-2.426-2.287-3.76-5.083-3.349-7.015-15.571-27.671-21.805-37.251,0-.145,0-.285,0-.433,0-10.441-1.725-10.831-42.865-9.674-32.032.9-35.972,1.3-38.407,3.916-2.159,2.316-2.927,7.123-3.754,23.478-.653,12.877-1.889,22.264-3.31,25.111-1.671,3.35-2.03,7.7-1.365,16.545.5,6.6.118,19.689-.841,29.088-1.5,14.694-1.409,17.6.64,20.724,3.06,4.672,13.015,5.1,16.97.729,2.865-3.165,5.641-22.238,5.661-38.878.015-11.756,1.5-12.959,16.039-12.959,7.876,0,10.695-.672,13.4-3.189,4.371-4.073,4.4-10.819.056-15.477-3.083-3.309-4.349-3.55-15.055-2.863l-11.688.75,1.076-11.867c.591-6.527,1.375-12.167,1.74-12.533s13.168-.992,28.448-1.39c6.115-.159,11.1-.311,15.174-.526a151.033,151.033,0,0,0,7.3,13.8c5.1,8.6,10.775,18.809,12.61,22.68a55.6,55.6,0,0,0,8.078,12.044l4.744,5L495.9,186.678c-1.674,24.594-1.856,26.85.644,30.664,2.311,3.527,3.634,4.051,9.2,3.643,5.143-.376,6.9-1.3,8.386-4.387,1.034-2.151,3.019-15.863,4.03-30.5l6.177-89.4,12.443-12.626C550.418,70.237,570.007,43.253,571.372,36.425Z" fill="#5dbba2"/>
    <path d="M596.041,164.634c-15.608-1.055-42.876-2.178-69.534-3.016l-.631,20.418c17.151.51,34.624,1.341,52.192,2.5,25.417,1.684,27.615,1.613,30.513-.986a12.264,12.264,0,0,0,3.428-7.3C612.536,168.437,608.464,165.472,596.041,164.634Z" fill="#5dbba2"/>
    <path d="M454.607,160.467c-52.327,2.478-190.2,12.028-208.705,26.438-3.99,3.108-4.716,14.938.184,13.946,37.887-7.671,192.592-19.573,243.554-19.415l.641-20.775c-10.432-.215-19.594-.34-26.351-.339C459.876,160.323,456.686,160.369,454.607,160.467Z" fill="#5dbba2"/>
    <path d="M188.726,103.435c3.12-57.457,3.15-53.932-.483-57.763-4.236-4.468-11.474-4.6-15.5-.278-3.147,3.378-3.287,4.72-5.889,56.359-1.126,22.357.956,34.347,6.756,38.909,5.138,4.041,11.456,4.03,15.814-.03,4.064-3.786,4.344-8.561.907-15.449C188.294,121.1,187.99,116.978,188.726,103.435Z" fill="#5dbba2"/>
    <path d="M277.471,140.52c5.75,0,12.345-7.894,12.345-14.775a161.431,161.431,0,0,1,2.193-18.258c1.206-7.21,2.653-25.781,3.214-41.269.984-27.146.9-28.286-2.254-31.674a10.688,10.688,0,0,0-15.44-.268c-2.663,2.859-3.16,6.683-4.162,32.065-.625,15.85-1.737,28.818-2.471,28.818s-2.35-1.935-3.592-4.3c-8.166-15.55-21.235-49.04-30.153-53.589-6.777-3.457-9.936-3.738-16.466-1.461-8.788,3.063-9.062,4.6-12.275,68.794-.5,9.893-1.72,22.838-2.722,28.765-1.822,10.778-1.821,10.78,2.468,14.469,8.568,7.369,16.5,2.818,19.461-11.169.91-4.3,2.13-17.323,2.71-28.936s1.506-26.657,2.058-33.429l1-12.311,5.709,16.96c8.094,24.044,9.36,22.305,18.771,40.453C265.035,133.224,271.808,140.52,277.471,140.52Z" fill="#5dbba2"/>
    <path d="M194.022,0c-9.906.232-26.46,4.362-28.55,7.123a11.236,11.236,0,0,0,1.081,14.633,12.982,12.982,0,0,0,7.533,3.188c7.235,0,22.558-3.293,26.192-5.63C207.646,14.58,202.857-.2,194.022,0Z" fill="#5dbba2"/>
  </g>
</svg>
